<svg fill="none" height="869" viewBox="0 0 1072 869" width="1072" xmlns="http://www.w3.org/2000/svg" xmlns:xlink="http://www.w3.org/1999/xlink"><filter id="a" color-interpolation-filters="sRGB" filterUnits="userSpaceOnUse" height="867.173" width="1071.59" x=".223633" y=".87207"><feFlood flood-opacity="0" result="BackgroundImageFix"/><feBlend in="SourceGraphic" in2="BackgroundImageFix" mode="normal" result="shape"/><feGaussianBlur result="effect1_foregroundBlur_174_44670" stdDeviation="75"/></filter><radialGradient id="b" cx="0" cy="0" gradientTransform="matrix(167.22747175 -162.44906455 226.8507772 233.52354808 190.081 542.593)" gradientUnits="userSpaceOnUse" r="1"><stop offset="0" stop-color="#d1ff5f" stop-opacity=".5"/><stop offset="1" stop-color="#0091ff"/></radialGradient><g filter="url(#a)" opacity=".5"><path d="m269.024 451.589c-52.146 32.05-100.928 28.273-118.801 22.378 45.884 53.125 149.452 167.479 196.655 199.894 59.003 40.52 116.218 61.297 211.467 26.622 95.248-34.676 140.48-35.016 111.275-155.138-29.205-120.123 271.022-291.9 251.263-306.623s-109.588-54.456-172.413-76.646c-62.826-22.191-154.579-6.125-200.061 3.101-45.481 9.226-99.113 76.859-139.777 138.014-40.663 61.154-74.426 108.336-139.608 148.398z" fill="url(#b)"/></g></svg>